<?xml version="1.0" standalone="no"?>
<!DOCTYPE svg PUBLIC "-//W3C//DTD SVG 20010904//EN"
 "http://www.w3.org/TR/2001/REC-SVG-20010904/DTD/svg10.dtd">
<svg version="1.0" xmlns="http://www.w3.org/2000/svg"
 width="522.000000pt" height="522.000000pt" viewBox="0 0 522.000000 522.000000"
 preserveAspectRatio="xMidYMid meet">

<g transform="translate(0.000000,522.000000) scale(0.100000,-0.100000)"
fill="#000000" stroke="none">
<path d="M2099 5086 c-11 -19 -31 -37 -44 -40 -13 -3 -29 -16 -36 -27 -13 -26
-4 -69 16 -69 26 0 25 -17 -11 -121 -19 -57 -48 -158 -65 -224 -16 -66 -37
-139 -45 -161 -12 -32 -13 -47 -5 -63 29 -54 74 -3 101 114 12 50 23 97 26
107 3 11 28 21 82 33 245 52 372 127 387 228 17 109 -60 174 -231 198 -65 8
-82 15 -97 35 -26 34 -54 30 -78 -10z m278 -125 c68 -31 83 -83 36 -128 -37
-34 -132 -77 -229 -103 -90 -23 -118 -25 -112 -7 3 6 22 63 43 126 29 83 44
115 59 121 40 16 159 11 203 -9z"/>
<path d="M3987 5069 c-9 -5 -19 -26 -23 -47 -3 -20 -35 -153 -70 -296 -35
-142 -64 -271 -64 -286 0 -30 22 -60 45 -60 22 0 45 41 45 81 0 20 29 155 65
300 36 145 65 272 63 282 -4 24 -38 38 -61 26z"/>
<path d="M741 5018 c-74 -27 -211 -184 -270 -308 -32 -66 -36 -84 -36 -152 0
-85 14 -114 73 -154 96 -66 272 -17 387 108 117 126 162 308 103 422 -32 64
-102 101 -146 77 -15 -8 -29 -7 -54 3 -23 9 -41 11 -57 4z m143 -78 c108 -41
75 -261 -59 -394 -99 -99 -249 -126 -300 -53 -47 67 27 242 159 380 43 44 48
47 85 41 33 -5 41 -3 50 15 13 23 27 26 65 11z"/>
<path d="M3563 4814 c-124 -51 -223 -187 -223 -307 0 -54 3 -62 34 -93 31 -31
39 -34 92 -34 75 0 130 27 188 90 85 96 114 201 78 283 -35 79 -82 96 -169 61z
m93 -100 c13 -32 13 -41 0 -88 -21 -71 -68 -133 -119 -157 -53 -24 -69 -24
-98 0 -46 37 -18 141 58 214 16 15 54 36 84 46 30 10 55 19 57 20 2 0 10 -15
18 -35z"/>
<path d="M4309 4826 c-14 -7 -36 -16 -50 -19 -13 -3 -50 -29 -81 -57 -127
-113 -166 -295 -74 -351 37 -23 121 -25 170 -5 46 19 129 105 157 163 52 107
30 237 -46 269 -42 17 -44 17 -76 0z m59 -101 c29 -63 -5 -163 -75 -226 -53
-48 -96 -58 -132 -32 -52 39 -36 114 40 198 40 43 59 56 90 61 22 4 42 11 45
15 9 16 20 10 32 -16z"/>
<path d="M1220 4800 c-141 -77 -145 -162 -10 -228 30 -15 56 -35 58 -44 5 -26
-53 -50 -131 -56 -77 -5 -93 -20 -58 -55 32 -32 95 -28 177 13 51 25 69 40 80
66 30 72 16 96 -78 138 -81 36 -85 53 -22 94 42 27 89 38 98 23 4 -6 18 -11
30 -11 32 0 41 45 15 71 -29 29 -93 25 -159 -11z"/>
<path d="M3037 4819 c-11 -7 -17 -22 -17 -45 0 -19 -13 -98 -30 -176 -34 -159
-36 -190 -16 -207 25 -21 53 3 61 51 4 24 15 76 25 117 15 61 26 81 61 117 58
60 90 70 120 38 35 -38 79 -26 79 21 0 57 -80 98 -142 72 -18 -8 -42 -24 -52
-36 -26 -29 -36 -26 -36 9 0 34 -26 54 -53 39z"/>
<path d="M4694 4804 c-59 -31 -113 -80 -120 -110 -10 -40 22 -82 89 -115 34
-17 65 -37 69 -43 19 -29 -62 -66 -144 -66 -58 0 -78 -20 -49 -49 30 -30 63
-35 123 -17 76 22 134 66 147 112 16 57 2 77 -83 118 -42 19 -76 40 -76 45 0
14 61 59 98 72 24 8 37 7 61 -5 28 -15 31 -15 41 3 16 30 12 48 -12 65 -33 23
-89 19 -144 -10z"/>
<path d="M2683 4795 c-72 -31 -151 -137 -177 -239 -20 -75 -5 -119 49 -142 32
-13 39 -13 68 2 17 9 46 27 64 40 17 13 34 24 38 24 3 0 4 -19 3 -42 -3 -43
-3 -43 32 -43 30 0 35 4 41 30 4 17 24 103 45 192 46 195 46 193 -60 193 -39
-1 -85 -7 -103 -15z m100 -96 c-4 -78 -125 -219 -189 -219 -20 0 -24 5 -24 30
0 86 95 212 176 233 33 8 39 1 37 -44z"/>
<path d="M338 4231 l-33 -29 1 -104 c1 -84 6 -119 28 -188 37 -110 52 -139
155 -295 91 -137 185 -317 222 -425 57 -168 27 -410 -71 -573 -22 -36 -40 -74
-40 -84 0 -10 -14 -27 -31 -38 -40 -26 -100 -116 -161 -242 -29 -62 -55 -103
-64 -103 -21 0 -88 -35 -105 -56 -10 -12 -16 -57 -19 -158 -5 -126 -9 -147
-33 -200 -40 -87 -33 -150 23 -201 11 -10 44 -56 71 -102 64 -105 122 -157
207 -183 35 -11 73 -20 84 -20 11 0 33 -9 49 -21 l29 -20 -42 -52 c-65 -82
-88 -140 -88 -224 0 -48 6 -86 19 -115 18 -42 77 -104 120 -128 20 -10 21 -19
21 -158 0 -173 19 -312 58 -425 l27 -82 39 -3 c34 -3 38 -1 31 15 -49 118
-104 307 -93 319 2 2 21 -18 41 -45 21 -27 55 -61 77 -76 l39 -27 -6 -58 c-3
-32 -3 -74 1 -94 6 -32 10 -36 37 -36 24 0 29 4 25 18 -13 48 -17 85 -11 112
6 29 8 30 63 30 68 0 137 35 195 99 20 23 42 41 47 41 23 0 89 -41 114 -70 19
-24 26 -43 26 -76 0 -48 -20 -107 -47 -136 -15 -17 -12 -18 77 -18 l92 0 -6
25 c-32 127 -136 637 -136 667 0 4 15 2 32 -3 68 -19 139 -11 197 22 65 38
185 152 179 171 -10 30 -41 17 -108 -46 -77 -72 -134 -106 -178 -106 -87 0
-225 78 -257 146 -34 73 1 190 80 270 55 55 113 69 249 61 218 -13 361 -87
426 -220 63 -131 86 -471 42 -631 -30 -110 -81 -209 -147 -288 l-55 -68 39 0
c35 0 42 5 82 58 65 85 116 194 140 300 20 84 21 112 16 260 -7 181 -30 321
-68 398 -83 173 -381 291 -611 243 -56 -12 -121 -41 -150 -67 -17 -14 -18 -13
-18 10 0 21 7 27 42 37 29 9 60 31 98 70 30 31 71 63 90 71 177 69 257 137
278 236 6 30 14 39 47 52 22 8 56 15 75 15 48 0 314 -24 319 -30 3 -2 3 -59 0
-126 -14 -403 12 -532 136 -652 57 -56 166 -115 260 -140 33 -9 106 -19 161
-22 202 -11 381 44 477 146 89 95 97 206 41 558 -20 124 -34 226 -32 229 3 2
54 13 114 24 135 24 242 54 315 86 l57 26 178 -61 c99 -33 229 -79 289 -103
l110 -44 7 -114 c13 -201 44 -328 161 -665 66 -189 82 -390 54 -672 l-13 -123
32 0 32 0 6 78 c3 42 10 117 15 167 5 50 8 110 5 135 -18 198 -37 356 -43 360
-13 9 -132 351 -136 389 -2 20 -11 68 -19 106 -18 77 -32 264 -23 289 6 14 12
14 64 -5 91 -34 335 -136 480 -200 126 -57 169 -65 156 -32 -9 22 -316 159
-613 273 -43 17 -84 37 -90 46 -9 9 -11 33 -7 68 5 54 40 180 56 205 8 12 49
8 271 -28 200 -33 265 -40 273 -31 24 24 -26 38 -261 75 -130 20 -243 39 -251
41 -17 5 -10 36 29 120 l29 64 130 0 c105 0 131 3 131 14 0 20 -32 26 -144 26
-89 0 -98 2 -91 18 39 95 58 156 66 207 6 33 11 60 12 62 1 1 85 11 187 23
102 11 195 23 208 25 27 6 29 31 3 40 -16 5 -210 -12 -352 -31 l-48 -6 -11 43
c-19 75 -41 131 -86 214 -90 168 -111 334 -66 505 36 133 188 467 311 680 33
58 61 117 61 131 0 62 -113 117 -216 105 -128 -15 -376 -129 -681 -314 -272
-165 -304 -173 -479 -123 -180 51 -213 54 -565 48 -365 -6 -487 -18 -799 -78
-285 -55 -340 -58 -466 -26 -188 48 -472 175 -673 301 -150 94 -331 197 -425
242 -93 45 -152 46 -198 5z m211 -78 c148 -79 299 -166 396 -228 161 -104 452
-235 645 -291 86 -24 105 -26 210 -21 68 3 191 20 300 41 268 52 374 64 665
77 372 16 473 10 670 -40 178 -46 204 -48 272 -25 42 14 343 185 413 234 46
32 334 168 412 194 113 38 214 31 239 -16 9 -16 5 -30 -22 -71 -90 -143 -117
-192 -169 -302 -76 -161 -137 -319 -167 -435 -21 -83 -24 -111 -20 -215 5
-138 28 -215 116 -395 61 -126 71 -166 45 -174 -22 -6 -327 -44 -654 -81 -329
-37 -470 -64 -470 -90 0 -19 23 -19 124 0 45 8 182 26 306 40 124 14 333 39
465 55 131 16 241 27 243 25 10 -10 -19 -121 -51 -194 l-32 -76 -140 2 c-77 2
-306 8 -508 15 -277 8 -370 9 -379 0 -6 -6 -8 -15 -4 -19 10 -10 166 -21 319
-22 113 -1 129 -5 107 -27 -6 -6 -14 -30 -18 -55 l-8 -44 -104 5 c-203 10
-295 7 -295 -10 0 -10 12 -16 40 -17 130 -8 330 -25 334 -29 2 -2 -9 -22 -24
-44 -30 -44 -74 -80 -97 -80 -7 0 -84 21 -170 47 -87 25 -161 44 -164 40 -19
-19 17 -40 143 -81 l138 -44 -40 -17 c-109 -47 -378 -95 -528 -95 -192 0 -321
75 -319 185 1 75 75 215 113 215 30 0 141 109 137 134 -4 30 -38 31 -81 2 -41
-28 -44 -23 -23 29 16 37 23 40 73 26 48 -14 96 3 132 47 17 20 38 46 48 56 9
11 18 42 20 70 7 90 -8 104 -303 287 -89 54 -170 99 -181 99 -64 0 -169 -36
-248 -84 -120 -72 -274 -195 -281 -223 -10 -37 5 -74 42 -108 19 -17 34 -39
34 -47 0 -23 64 -75 106 -87 19 -5 57 -7 82 -4 38 4 52 1 75 -17 16 -13 27
-31 27 -46 0 -31 -5 -30 -46 6 -43 38 -81 48 -101 27 -22 -22 -9 -51 53 -113
42 -42 61 -54 85 -54 41 0 123 -70 139 -121 17 -52 8 -129 -20 -169 -13 -19
-47 -44 -79 -59 -54 -25 -64 -26 -261 -29 -113 -2 -239 1 -280 5 l-75 8 73 28
c54 22 72 33 72 48 0 10 -3 19 -7 19 -5 0 -57 -16 -116 -35 -59 -19 -113 -35
-120 -35 -6 0 -31 8 -55 17 -32 14 -44 25 -50 48 l-8 30 120 8 c225 14 247 17
244 35 -4 20 -7 20 -220 8 l-148 -8 0 48 c-1 27 -7 67 -15 89 -8 21 -13 40
-12 41 1 1 96 -10 211 -23 146 -17 212 -21 219 -14 8 8 8 14 1 21 -14 14 -414
59 -434 49 -20 -10 -111 75 -128 120 -7 19 -22 45 -34 58 -29 31 -118 63 -174
63 -31 0 -46 5 -51 15 -3 9 -4 17 -2 19 5 5 294 -79 617 -179 190 -58 256 -75
265 -66 8 8 8 14 0 22 -13 13 -649 205 -893 269 -102 27 -270 76 -373 110
-194 62 -250 73 -227 45 7 -8 18 -15 24 -15 6 -1 25 -7 41 -15 29 -13 29 -13
-30 -14 -82 -1 -94 8 -66 48 41 57 79 156 106 276 44 194 28 279 -99 535 -37
74 -105 191 -151 260 -46 69 -92 143 -103 165 -59 119 -91 320 -58 370 25 37
55 32 175 -32z m1991 -1407 c0 -3 -20 -18 -45 -35 -25 -17 -45 -26 -45 -21 0
5 19 20 43 34 45 27 47 28 47 22z m340 -63 c0 -3 -73 26 -75 30 0 1 -7 10 -15
20 -9 12 5 7 38 -14 29 -17 52 -34 52 -36z m-570 -87 c0 -2 -8 -10 -17 -17
-16 -13 -17 -12 -4 4 13 16 21 21 21 13z m493 -33 c-7 -2 -19 -2 -25 0 -7 3
-2 5 12 5 14 0 19 -2 13 -5z m292 -13 c10 -11 16 -20 13 -20 -3 0 -13 9 -23
20 -10 11 -16 20 -13 20 3 0 13 -9 23 -20z m-835 6 c0 -2 -8 -10 -17 -17 -16
-13 -17 -12 -4 4 13 16 21 21 21 13z m616 -78 c82 -50 153 -84 192 -93 39 -8
40 -17 5 -45 -24 -18 -35 -20 -90 -14 -59 6 -63 5 -87 -21 -29 -31 -46 -82
-46 -136 0 -26 -9 -46 -37 -78 -36 -43 -37 -43 -95 -39 -50 4 -63 9 -93 38
-32 31 -35 38 -30 80 11 99 -44 160 -144 160 -74 0 -128 16 -142 41 -6 12 -9
22 -7 23 13 11 227 101 265 112 30 8 87 12 149 11 97 -2 104 -4 160 -39z
m-1956 -27 c58 -21 150 -47 205 -56 103 -17 193 -48 165 -57 -44 -15 -122 -32
-175 -39 -49 -6 -64 -4 -85 10 -41 29 -97 43 -163 40 -43 -2 -74 3 -102 15
-60 27 -129 25 -160 -4 -14 -13 -29 -37 -34 -54 -5 -17 -21 -58 -35 -91 -14
-33 -26 -76 -26 -96 0 -44 -8 -53 -28 -33 -13 14 -17 14 -31 -1 -13 -13 -17
-46 -19 -190 -3 -160 -2 -177 18 -224 46 -105 167 -181 297 -186 41 -2 76 -5
79 -7 2 -3 -20 -18 -48 -34 -47 -25 -65 -29 -158 -32 -85 -3 -108 -1 -118 11
-7 8 -26 55 -42 103 -17 49 -54 130 -83 179 -52 90 -52 90 -51 175 1 68 7 103
33 179 74 214 165 372 242 420 20 12 48 16 120 14 82 -2 107 -7 199 -42z
m1321 12 c13 -16 12 -17 -3 -4 -10 7 -18 15 -18 17 0 8 8 3 21 -13z m906 -5
c-3 -8 -6 -5 -6 6 -1 11 2 17 5 13 3 -3 4 -12 1 -19z m-2406 -129 c19 -10 19
-11 -6 -41 -54 -64 -94 -184 -95 -280 0 -42 -2 -43 -32 -27 -32 17 -41 -8 -17
-51 26 -47 74 -78 131 -86 77 -11 405 56 423 87 4 5 11 9 16 9 23 0 -30 -54
-119 -121 -52 -40 -124 -101 -159 -137 -39 -39 -69 -62 -78 -58 -37 14 -244
296 -265 362 -18 54 -6 150 31 246 18 46 37 89 42 96 12 15 101 16 128 1z
m245 -28 c23 -10 62 -38 87 -62 71 -69 83 -149 36 -240 -26 -52 -38 -56 -32
-12 4 30 -3 52 -32 108 -20 39 -48 84 -61 101 -29 39 -97 64 -172 64 -62 0
-65 13 -12 42 45 24 132 23 186 -1z m457 -2 c21 -5 52 -23 70 -39 31 -27 32
-32 37 -122 6 -96 15 -123 87 -252 22 -40 27 -62 27 -115 0 -115 -12 -138
-142 -274 -211 -220 -218 -227 -241 -227 -12 0 -37 15 -57 33 -40 37 -39 64 5
73 114 23 171 59 251 160 101 127 148 239 129 309 -10 34 -82 103 -178 171
-39 27 -41 31 -35 66 4 25 0 50 -14 80 -22 49 -50 77 -107 106 -40 20 -39 24
10 35 39 9 120 7 158 -4z m-178 -58 c23 -10 53 -32 68 -50 23 -27 27 -42 27
-90 0 -183 -177 -399 -372 -456 -32 -9 -70 -15 -85 -13 -26 3 -25 5 34 53 147
119 255 220 272 254 46 89 70 251 37 251 -9 0 -15 -22 -20 -76 -4 -41 -11 -86
-16 -100 -9 -22 -12 -23 -32 -12 -13 7 -24 13 -25 14 -1 0 2 17 8 38 14 49 -3
129 -36 172 l-25 33 23 4 c34 7 97 -3 142 -22z m-358 -27 c70 -25 70 -39 -1
-39 -58 0 -67 -3 -120 -43 -31 -24 -64 -41 -71 -38 -31 12 -22 -15 28 -80 28
-38 56 -72 61 -75 17 -13 -10 -17 -61 -9 -29 5 -57 12 -63 15 -24 15 0 196 34
264 14 26 17 27 83 24 37 -2 87 -11 110 -19z m1594 -51 c26 -28 28 -33 10 -22
-22 14 -60 59 -49 59 2 0 20 -17 39 -37z m439 14 c0 -2 -10 -12 -22 -23 l-23
-19 19 23 c18 21 26 27 26 19z m-1991 -31 c42 -22 89 -81 97 -121 8 -44 -14
-81 -61 -101 -63 -26 -73 -18 -31 25 32 33 39 47 39 81 0 29 -7 48 -23 65 -27
29 -81 49 -112 41 -15 -4 -13 -1 7 9 38 18 50 18 84 1z m731 -106 c11 -22 19
-68 23 -125 3 -49 13 -121 23 -159 15 -58 16 -77 6 -124 -6 -30 -22 -68 -35
-86 -25 -32 -140 -106 -165 -106 -8 0 16 29 52 63 44 43 75 85 96 128 28 59
30 69 24 139 -6 75 -25 127 -89 239 -17 29 -25 59 -25 90 l0 45 36 -35 c20
-18 44 -50 54 -69z m2549 85 c123 -2 226 -6 228 -8 2 -2 -12 -40 -30 -83 -33
-77 -35 -79 -68 -78 -39 0 -418 43 -435 49 -7 2 -9 19 -4 48 3 24 3 54 -1 65
-7 20 -5 21 39 17 26 -3 148 -7 271 -10z m-3914 -100 c-27 -94 -33 -190 -14
-244 6 -17 31 -66 55 -108 24 -42 56 -113 70 -157 29 -87 77 -190 102 -218 14
-17 13 -18 -9 -18 -68 1 -142 61 -210 169 -22 36 -56 91 -75 121 -38 60 -41
84 -19 136 29 71 46 184 39 265 -7 88 2 114 49 134 18 7 33 12 35 10 1 -1 -9
-42 -23 -90z m604 74 c49 -17 66 -66 36 -105 -14 -17 -14 -17 -3 10 11 25 10
30 -11 47 -16 13 -39 19 -72 19 -50 0 -62 11 -31 29 22 14 42 13 81 0z m-123
-14 c-10 -28 6 -76 29 -87 26 -12 65 4 65 27 0 17 26 20 36 4 8 -14 -45 -69
-68 -69 -26 0 -62 26 -93 66 l-26 35 23 19 c28 23 42 25 34 5z m-306 -60 c5
-14 19 -69 29 -122 20 -96 65 -204 89 -211 18 -6 15 19 -12 74 -22 46 -48 124
-41 124 1 0 18 -24 36 -52 19 -29 63 -89 98 -132 l64 -79 -39 7 c-58 11 -155
58 -191 94 -34 35 -43 39 -43 20 0 -19 63 -84 99 -102 41 -22 203 -56 263 -56
73 0 146 19 228 58 105 51 222 168 275 275 21 42 40 77 42 77 3 0 42 -30 88
-66 122 -96 125 -115 52 -258 -74 -144 -205 -256 -298 -256 -46 0 -175 24
-249 47 l-55 17 62 7 c210 26 442 214 455 369 2 26 -1 35 -14 38 -14 3 -18 -3
-18 -30 -1 -107 -128 -237 -304 -311 -68 -29 -79 -30 -241 -33 -193 -4 -233 4
-308 61 -91 69 -110 132 -100 330 6 133 14 160 33 110z m370 5 c0 -5 -7 -10
-15 -10 -8 0 -15 5 -15 10 0 6 7 10 15 10 8 0 15 -4 15 -10z m1878 -52 c-10
-28 -12 -30 -19 -12 -13 32 -10 44 10 44 18 0 19 -3 9 -32z m-1592 -13 c-21
-16 -32 -13 -21 4 3 6 14 11 23 11 15 -1 15 -2 -2 -15z m3024 -36 c102 -12
188 -25 193 -29 4 -3 -1 -44 -12 -91 -11 -46 -22 -107 -26 -135 l-6 -51 -164
63 c-90 35 -211 78 -269 96 l-105 32 45 44 c25 25 52 58 60 75 14 27 19 29 57
24 23 -4 125 -16 227 -28z m-3472 -19 c31 -7 89 -11 135 -8 l82 4 -55 -17
c-30 -10 -77 -18 -103 -18 -53 -1 -120 28 -131 55 -5 13 -3 14 6 7 7 -6 37
-16 66 -23z m2033 -107 c10 -12 10 -15 1 -9 -8 5 -29 -10 -58 -41 l-46 -48 41
49 c23 27 41 53 41 57 0 13 6 11 21 -8z m49 -58 c19 -19 32 -35 29 -35 -3 0
-20 16 -39 35 -19 19 -32 35 -29 35 3 0 20 -16 39 -35z m-970 -35 c0 -7 -24
-20 -35 -20 -2 0 -3 8 -2 19 1 12 7 17 19 13 10 -2 18 -8 18 -12z m553 -57
l-92 -4 -4 -77 -3 -77 -2 83 -2 82 98 -2 97 -2 -92 -3z m614 -9 c-3 -3 -12 -4
-19 -1 -8 3 -5 6 6 6 11 1 17 -2 13 -5z m156 -11 c-24 -2 -62 -2 -85 0 -24 2
-5 4 42 4 47 0 66 -2 43 -4z m74 -40 c-3 -10 -5 -4 -5 12 0 17 2 24 5 18 2 -7
2 -21 0 -30z m10 -65 c-3 -7 -5 -2 -5 12 0 14 2 19 5 13 2 -7 2 -19 0 -25z
m10 -65 c-3 -10 -5 -4 -5 12 0 17 2 24 5 18 2 -7 2 -21 0 -30z m-2221 -38 c55
-18 115 -36 132 -40 18 -3 32 -10 32 -15 0 -4 -35 -40 -77 -80 -65 -60 -81
-71 -102 -66 -130 30 -194 29 -278 -5 -30 -12 -34 -11 -77 25 -25 20 -59 57
-75 80 l-30 43 87 6 c101 7 138 18 207 63 28 18 57 30 65 27 8 -2 60 -20 116
-38z m1251 -167 c-2 -35 -3 -7 -3 62 0 69 1 97 3 63 2 -35 2 -91 0 -125z m513
15 l-5 -158 -3 145 c-2 127 0 170 10 170 2 0 1 -71 -2 -157z m467 120 c-3 -10
-5 -4 -5 12 0 17 2 24 5 18 2 -7 2 -21 0 -30z m10 -80 c-3 -10 -5 -2 -5 17 0
19 2 27 5 18 2 -10 2 -26 0 -35z m-440 -136 c-2 -23 -3 -1 -3 48 0 50 1 68 3
42 2 -26 2 -67 0 -90z m-1604 90 c23 -19 22 -22 -15 -45 -33 -20 -58 -25 -111
-23 -37 1 -33 11 28 59 51 41 56 41 98 9z m2054 -34 c-3 -10 -5 -4 -5 12 0 17
2 24 5 18 2 -7 2 -21 0 -30z m-2028 -65 c-2 -31 -2 -31 -6 -5 -5 31 -8 32 -43
12 -14 -8 -34 -14 -45 -14 -11 0 -3 6 18 14 21 7 41 16 44 19 17 17 33 4 32
-26z m2038 -30 c-2 -13 -4 -3 -4 22 0 25 2 35 4 23 2 -13 2 -33 0 -45z m-2270
18 c99 -54 152 -185 123 -304 -16 -69 -56 -105 -154 -136 -91 -30 -163 -33
-235 -9 -137 44 -197 180 -137 309 31 67 79 120 135 150 40 21 56 24 131 21
71 -2 94 -8 137 -31z m1270 -18 c-3 -7 -5 -2 -5 12 0 14 2 19 5 13 2 -7 2 -19
0 -25z m-1087 -92 c0 -3 -4 -8 -10 -11 -5 -3 -10 -1 -10 4 0 6 5 11 10 11 6 0
10 -2 10 -4z m2087 -38 c-3 -8 -6 -5 -6 6 -1 11 2 17 5 13 3 -3 4 -12 1 -19z
m-404 -241 l42 -4 -47 -1 -48 -2 2 128 2 127 3 -122 4 -122 42 -4z m-106 201
c-3 -7 -5 -2 -5 12 0 14 2 19 5 13 2 -7 2 -19 0 -25z m503 14 c0 -5 -7 -17
-15 -28 -14 -18 -14 -17 -4 9 12 27 19 34 19 19z m-880 -67 c19 -19 32 -35 29
-35 -3 0 -20 16 -39 35 -19 19 -32 35 -29 35 3 0 20 -16 39 -35z m110 -81 c0
-2 -9 0 -20 6 -11 6 -20 13 -20 16 0 2 9 0 20 -6 11 -6 20 -13 20 -16z m670
22 c0 -2 -8 -10 -17 -17 -16 -13 -17 -12 -4 4 13 16 21 21 21 13z m-1964 -37
c19 -22 19 -22 -3 -8 -13 8 -23 17 -23 21 0 12 6 9 26 -13z m1334 1 c8 -5 11
-10 5 -10 -5 0 -17 5 -25 10 -8 5 -10 10 -5 10 6 0 17 -5 25 -10z m236 -46
c-3 -8 -13 -13 -23 -13 -17 1 -17 2 0 6 11 3 17 15 18 36 1 25 3 27 6 9 3 -13
2 -30 -1 -38z m-129 10 c-3 -3 -12 -4 -19 -1 -8 3 -5 6 6 6 11 1 17 -2 13 -5z
m390 0 c-3 -3 -12 -4 -19 -1 -8 3 -5 6 6 6 11 1 17 -2 13 -5z m-1776 -21 c13
-16 12 -17 -3 -4 -10 7 -18 15 -18 17 0 8 8 3 21 -13z m1432 10 c-7 -2 -19 -2
-25 0 -7 3 -2 5 12 5 14 0 19 -2 13 -5z m290 0 c-7 -2 -19 -2 -25 0 -7 3 -2 5
12 5 14 0 19 -2 13 -5z m-1737 -75 l29 -33 -32 29 c-31 28 -38 36 -30 36 2 0
16 -15 33 -32z m-62 -21 c16 -11 40 -45 54 -75 27 -61 26 -116 -4 -205 -30
-89 -142 -186 -214 -187 -66 0 -182 87 -224 168 -23 45 -21 142 5 203 19 43
25 49 52 49 46 0 177 38 222 64 43 24 52 23 109 -17z m164 12 c-3 -8 -7 -3
-11 10 -4 17 -3 21 5 13 5 -5 8 -16 6 -23z m9 -51 c-3 -7 -5 -2 -5 12 0 14 2
19 5 13 2 -7 2 -19 0 -25z m-597 -5 c-1 -5 -7 -19 -15 -33 l-14 -25 -1 26 c0
14 3 29 7 32 9 9 23 9 23 0z m607 -70 c-3 -10 -5 -2 -5 17 0 19 2 27 5 18 2
-10 2 -26 0 -35z m-50 -65 c-2 -13 -4 -3 -4 22 0 25 2 35 4 23 2 -13 2 -33 0
-45z m60 5 c-3 -10 -5 -4 -5 12 0 17 2 24 5 18 2 -7 2 -21 0 -30z m10 -45 c-3
-8 -6 -5 -6 6 -1 11 2 17 5 13 3 -3 4 -12 1 -19z m10 -40 c-3 -8 -6 -5 -6 6
-1 11 2 17 5 13 3 -3 4 -12 1 -19z m10 -50 c-3 -7 -5 -2 -5 12 0 14 2 19 5 13
2 -7 2 -19 0 -25z m-114 -8 c3 -11 1 -18 -4 -14 -5 3 -9 12 -9 20 0 20 7 17
13 -6z m124 -42 c-3 -7 -5 -2 -5 12 0 14 2 19 5 13 2 -7 2 -19 0 -25z m11 -49
c-2 -7 -10 -4 -18 7 -9 11 -10 15 -2 10 7 -4 12 -2 13 6 0 10 2 10 6 1 2 -7 3
-18 1 -24z m24 -201 c-8 -8 -9 -4 -5 13 4 13 8 18 11 10 2 -7 -1 -18 -6 -23z"/>
<path d="M3622 3030 c-203 -15 -308 -63 -358 -166 -24 -50 -25 -57 -11 -71 17
-17 37 -10 37 13 0 17 -1 17 69 -1 137 -35 413 -35 528 0 29 9 82 38 119 65
36 28 76 50 89 50 30 0 41 16 25 36 -24 28 -192 68 -335 78 -27 2 -101 1 -163
-4z m341 -71 c25 -8 37 -18 35 -28 -5 -26 -100 -76 -171 -90 -67 -13 -167 -7
-167 9 0 5 11 26 25 46 14 21 28 49 32 62 6 24 6 24 107 19 56 -3 118 -11 139
-18z m-583 -58 c0 -5 3 -16 6 -25 5 -12 0 -16 -18 -16 -34 0 -41 10 -21 32 17
19 33 24 33 9z"/>
<path d="M1624 3019 c-74 -9 -291 -54 -354 -72 -54 -15 -61 -40 -13 -45 18 -2
58 -19 89 -37 147 -89 358 -122 588 -94 87 11 90 10 106 -12 21 -27 50 -19 50
14 0 32 -45 92 -113 150 -82 69 -127 87 -262 101 -16 2 -58 0 -91 -5z m24
-135 c18 -37 31 -68 29 -70 -7 -7 -122 18 -197 42 -77 26 -118 49 -107 60 11
11 129 32 187 33 l56 1 32 -66z m319 -41 c4 -11 -26 -27 -35 -19 -2 3 -2 12 2
21 6 18 27 16 33 -2z"/>
</g>
</svg>
